<?xml version="1.0" encoding="UTF-8" standalone="no"?>
<!DOCTYPE svg PUBLIC "-//W3C//DTD SVG 1.1//EN" "http://www.w3.org/Graphics/SVG/1.1/DTD/svg11.dtd">
<svg xmlns="http://www.w3.org/2000/svg" version="1.1" viewBox="0.00 0.00 500.00 500.00">
<g stroke-width="2.00" fill="none" stroke-linecap="butt">
<path stroke="#08739d" vector-effect="non-scaling-stroke" d="
  M 307.14 118.73
  Q 306.61 119.31 305.78 119.07
  C 301.86 117.92 295.01 118.36 291.00 118.28"
/>
<path stroke="#08739d" vector-effect="non-scaling-stroke" d="
  M 354.08 121.24
  Q 356.87 125.40 357.03 130.62
  Q 357.04 131.06 356.61 131.11
  L 351.67 131.67
  A 0.82 0.82 0.0 0 0 350.95 132.53
  Q 351.15 136.74 349.01 139.35"
/>
<path stroke="#08739d" vector-effect="non-scaling-stroke" d="
  M 348.48 154.75
  Q 352.75 145.81 359.39 137.82
  Q 359.46 137.74 359.50 137.75
  Q 359.62 137.79 359.74 137.83
  A 0.08 0.08 0.0 0 1 359.79 137.95
  Q 351.95 150.72 344.93 163.97
  Q 344.70 164.41 345.18 164.55
  Q 346.28 164.86 346.12 166.02
  Q 345.62 169.57 346.53 172.23
  A 1.17 1.14 2.0 0 0 347.20 172.93
  C 353.45 175.36 359.65 172.92 359.70 165.46
  Q 359.74 158.97 360.99 155.46"
/>
<path stroke="#08739d" vector-effect="non-scaling-stroke" d="
  M 377.29 136.29
  Q 378.87 135.56 383.28 134.38
  Q 388.62 132.96 389.14 125.63"
/>
<path stroke="#0288ba" vector-effect="non-scaling-stroke" d="
  M 327.01 202.43
  Q 324.73 205.06 324.81 208.50
  Q 324.85 210.17 323.82 209.98"
/>
<path stroke="#08739d" vector-effect="non-scaling-stroke" d="
  M 279.32 220.54
  Q 277.21 220.13 278.17 217.95
  A 3.31 3.30 22.8 0 0 276.37 213.56
  Q 275.65 213.27 274.44 211.60"
/>
<path stroke="#08739d" vector-effect="non-scaling-stroke" d="
  M 143.51 287.05
  L 142.95 295.00
  A 2.10 2.09 14.8 0 1 139.95 296.74
  C 138.32 295.96 137.55 294.77 137.52 292.86
  Q 137.46 289.77 136.46 287.62"
/>
<path stroke="#08739d" vector-effect="non-scaling-stroke" d="
  M 99.05 286.75
  Q 98.41 286.55 98.40 287.18
  Q 98.27 292.03 97.23 295.51
  C 96.71 297.25 94.51 296.92 93.51 295.75
  Q 90.86 292.65 91.67 286.99"
/>
<path stroke="#7fb471" vector-effect="non-scaling-stroke" d="
  M 129.22 305.53
  Q 126.43 304.56 122.72 305.93
  C 111.96 309.92 97.13 314.78 92.30 326.07
  Q 86.57 339.47 85.72 355.83
  Q 85.67 356.65 86.13 355.97
  C 87.99 353.19 89.18 351.08 91.92 349.08
  C 101.15 342.35 108.28 337.88 118.62 335.62
  A 0.66 0.65 -12.2 0 1 119.39 336.11
  L 119.71 337.51
  Q 119.84 338.07 120.41 338.13
  Q 122.67 338.37 123.00 336.38"
/>
<path stroke="#0288ba" vector-effect="non-scaling-stroke" d="
  M 151.28 302.29
  Q 152.62 301.44 152.48 300.26
  Q 152.37 299.36 152.12 300.23
  Q 151.74 301.51 150.98 301.59"
/>
</g>
<path fill="#0e445c" d="
  M 307.14 118.73
  Q 306.61 119.31 305.78 119.07
  C 301.86 117.92 295.01 118.36 291.00 118.28
  L 281.66 93.86
  Q 281.49 93.40 281.79 93.00
  C 285.54 88.12 291.23 95.48 293.65 98.88
  Q 300.63 108.70 307.14 118.73
  Z"
/>
<path fill="#01a2de" d="
  M 291.00 118.28
  C 295.01 118.36 301.86 117.92 305.78 119.07
  Q 306.61 119.31 307.14 118.73
  C 322.74 120.00 338.33 120.59 354.08 121.24
  Q 356.87 125.40 357.03 130.62
  Q 357.04 131.06 356.61 131.11
  L 351.67 131.67
  A 0.82 0.82 0.0 0 0 350.95 132.53
  Q 351.15 136.74 349.01 139.35
  L 349.81 134.36
  A 1.93 1.92 -74.6 0 0 348.62 132.26
  C 347.02 131.63 346.01 133.23 345.60 134.64
  C 343.37 142.31 340.09 153.01 340.24 160.94
  Q 340.26 161.69 340.94 161.36
  L 342.84 160.44
  A 0.51 0.51 0.0 0 1 343.49 160.61
  Q 344.26 161.72 345.32 160.85
  Q 348.21 158.47 348.48 154.75
  Q 352.75 145.81 359.39 137.82
  Q 359.46 137.74 359.50 137.75
  Q 359.62 137.79 359.74 137.83
  A 0.08 0.08 0.0 0 1 359.79 137.95
  Q 351.95 150.72 344.93 163.97
  Q 344.70 164.41 345.18 164.55
  Q 346.28 164.86 346.12 166.02
  Q 345.62 169.57 346.53 172.23
  A 1.17 1.14 2.0 0 0 347.20 172.93
  C 353.45 175.36 359.65 172.92 359.70 165.46
  Q 359.74 158.97 360.99 155.46
  Q 362.48 156.39 363.60 155.09
  Q 373.57 143.48 377.40 138.66
  Q 378.12 137.76 377.29 136.29
  Q 378.87 135.56 383.28 134.38
  Q 388.62 132.96 389.14 125.63
  Q 396.07 132.20 390.57 139.84
  Q 381.01 153.13 366.53 169.03
  C 364.15 171.64 360.76 174.30 358.01 177.12
  Q 357.66 177.47 357.18 177.59
  Q 346.61 180.16 338.45 188.72
  Q 331.14 196.39 327.01 202.43
  Q 324.73 205.06 324.81 208.50
  Q 324.85 210.17 323.82 209.98
  Q 306.05 210.02 288.57 211.86
  C 283.92 212.36 278.96 215.21 279.32 220.54
  Q 277.21 220.13 278.17 217.95
  A 3.31 3.30 22.8 0 0 276.37 213.56
  Q 275.65 213.27 274.44 211.60
  L 294.27 188.97
  A 1.09 1.08 19.8 0 0 293.42 187.17
  Q 281.99 187.57 270.50 187.51
  C 262.46 187.47 257.34 183.84 254.51 176.21
  Q 247.08 156.16 238.34 136.65
  Q 238.13 136.18 237.61 136.18
  Q 185.87 135.87 134.27 135.79
  C 128.50 135.79 114.29 137.32 111.27 131.19
  Q 111.03 130.70 110.75 130.69
  L 88.46 129.87
  A 0.92 0.92 0.0 0 1 88.22 128.08
  Q 89.63 127.62 91.50 127.61
  Q 163.74 127.00 213.75 127.30
  C 215.70 127.31 216.66 127.43 218.12 125.98
  C 222.57 121.56 225.32 118.28 232.18 118.25
  Q 256.09 118.13 279.99 118.71
  Q 280.45 118.72 285.45 119.28
  Q 289.01 119.68 291.00 118.28
  Z
  M 276.86 170.32
  L 277.45 168.95
  Q 277.67 168.43 277.56 167.87
  L 269.91 130.34
  A 1.05 1.05 0.0 0 0 268.88 129.50
  L 258.27 129.50
  A 1.18 1.18 0.0 0 0 257.14 131.03
  Q 262.93 149.84 269.75 166.50
  C 271.10 169.80 272.83 171.80 276.55 170.59
  A 0.52 0.49 2.0 0 0 276.86 170.32
  Z
  M 290.86 129.62
  L 285.57 130.40
  A 2.36 2.36 0.0 0 0 283.58 133.07
  L 284.06 136.31
  A 34.55 2.55 81.6 0 0 291.63 170.12
  L 296.54 169.39
  A 34.55 2.55 81.6 0 0 294.01 134.84
  L 293.54 131.61
  A 2.36 2.36 0.0 0 0 290.86 129.62
  Z
  M 317.30 169.46
  C 316.42 157.67 316.66 145.82 315.03 134.03
  C 314.53 130.35 310.37 130.38 307.42 130.91
  Q 306.90 131.00 306.83 131.51
  C 306.46 134.05 307.08 137.17 307.13 138.84
  Q 307.58 151.60 308.67 164.31
  C 309.21 170.65 311.65 169.11 316.34 170.27
  A 0.78 0.77 -85.1 0 0 317.30 169.46
  Z
  M 333.47 131.85
  L 328.73 131.71
  A 2.10 2.10 0.0 0 0 326.57 133.74
  L 326.51 135.72
  A 33.66 3.29 -88.3 0 0 328.80 169.47
  L 331.16 169.54
  A 33.66 3.29 -88.3 0 0 335.45 135.99
  L 335.51 134.01
  A 2.10 2.10 0.0 0 0 333.47 131.85
  Z
  M 300.30 193.95
  Q 296.79 197.06 293.19 200.18
  Q 291.84 201.34 292.07 202.51
  Q 292.28 203.57 293.36 203.63
  Q 304.36 204.25 314.52 203.68
  C 316.08 203.59 317.00 203.80 318.14 202.38
  Q 324.87 194.03 332.19 187.34
  Q 333.48 186.17 331.74 186.13
  L 312.38 185.65
  Q 311.94 185.64 311.61 185.94
  Q 308.13 189.07 304.01 191.33
  Q 302.01 192.43 300.30 193.95
  Z"
/>
<path fill="#0e445c" d="
  M 354.08 121.24
  Q 364.46 121.32 379.00 122.50
  Q 385.50 123.03 389.14 125.63
  Q 388.62 132.96 383.28 134.38
  Q 378.87 135.56 377.29 136.29
  Q 365.19 143.03 360.99 155.46
  Q 359.74 158.97 359.70 165.46
  C 359.65 172.92 353.45 175.36 347.20 172.93
  A 1.17 1.14 2.0 0 1 346.53 172.23
  Q 345.62 169.57 346.12 166.02
  Q 346.28 164.86 345.18 164.55
  Q 344.70 164.41 344.93 163.97
  Q 351.95 150.72 359.79 137.95
  A 0.08 0.08 0.0 0 0 359.74 137.83
  Q 359.62 137.79 359.50 137.75
  Q 359.46 137.74 359.39 137.82
  Q 352.75 145.81 348.48 154.75
  Q 346.77 153.87 345.22 155.35
  Q 344.89 155.67 344.82 155.22
  C 344.31 151.93 347.00 145.28 349.01 139.35
  Q 351.15 136.74 350.95 132.53
  A 0.82 0.82 0.0 0 1 351.67 131.67
  L 356.61 131.11
  Q 357.04 131.06 357.03 130.62
  Q 356.87 125.40 354.08 121.24
  Z"
/>
<path fill="#fdc503" d="
  M 252.31 180.94
  C 257.35 184.44 251.55 190.91 252.81 195.71
  C 254.16 200.89 258.51 204.34 262.22 207.88
  C 264.32 209.89 269.87 216.50 263.74 217.50
  C 258.18 218.40 250.25 218.60 243.41 218.55
  Q 145.08 217.94 94.56 218.30
  Q 78.05 218.42 72.16 218.10
  Q 71.89 218.08 71.97 217.83
  Q 72.02 217.70 72.06 217.56
  Q 72.08 217.49 72.25 217.48
  Q 91.59 215.44 110.82 212.62
  A 1.98 1.98 0.0 0 0 112.34 211.46
  L 115.41 204.59
  A 3.52 3.51 12.0 0 1 118.62 202.51
  Q 159.20 202.49 200.00 202.51
  Q 200.95 202.51 203.67 202.18
  Q 204.14 202.12 204.41 201.73
  C 207.34 197.52 209.08 191.91 204.44 188.26
  Q 204.00 187.91 203.45 187.92
  L 171.17 188.27
  A 3.62 3.60 -13.6 0 1 167.89 186.28
  C 165.05 180.67 165.09 181.17 159.08 181.07
  Q 140.19 180.74 124.31 179.32
  Q 118.05 178.76 124.33 178.50
  Q 152.36 177.37 181.74 177.80
  C 202.78 178.11 223.72 177.71 244.76 178.67
  C 247.69 178.81 250.09 179.39 252.31 180.94
  Z"
/>
<path fill="#026d95" d="
  M 327.01 202.43
  Q 331.18 205.65 334.33 205.69
  C 338.84 205.73 342.56 206.35 344.73 210.70
  C 351.27 223.77 332.69 234.01 330.21 220.04
  C 329.96 218.62 330.50 217.14 330.51 215.55
  A 1.29 1.25 -67.0 0 0 330.18 214.69
  Q 327.36 211.52 323.82 209.98
  Q 324.85 210.17 324.81 208.50
  Q 324.73 205.06 327.01 202.43
  Z
  M 338.0423 224.4291
  A 5.09 4.78 91.1 0 0 342.9191 219.4318
  A 5.09 4.78 91.1 0 0 338.2377 214.2509
  A 5.09 4.78 91.1 0 0 333.3609 219.2482
  A 5.09 4.78 91.1 0 0 338.0423 224.4291
  Z"
/>
<path fill="#0e445c" d="
  M 274.44 211.60
  Q 275.65 213.27 276.37 213.56
  A 3.31 3.30 22.8 0 1 278.17 217.95
  Q 277.21 220.13 279.32 220.54
  C 279.33 227.45 285.69 225.21 290.11 225.80
  A 2.08 2.07 85.6 0 1 291.82 227.27
  C 293.96 234.49 283.23 233.25 279.62 232.44
  C 268.99 230.06 267.22 218.90 274.44 211.60
  Z"
/>
<path fill="#0e445c" d="
  M 143.51 287.05
  L 142.95 295.00
  A 2.10 2.09 14.8 0 1 139.95 296.74
  C 138.32 295.96 137.55 294.77 137.52 292.86
  Q 137.46 289.77 136.46 287.62
  L 132.45 257.84
  A 0.92 0.91 86.3 0 0 131.56 257.05
  L 104.42 256.88
  A 1.80 1.79 -78.1 0 0 102.76 257.97
  C 101.58 260.71 102.12 264.31 101.66 266.97
  Q 99.96 276.80 99.05 286.75
  Q 98.41 286.55 98.40 287.18
  Q 98.27 292.03 97.23 295.51
  C 96.71 297.25 94.51 296.92 93.51 295.75
  Q 90.86 292.65 91.67 286.99
  Q 94.43 265.80 97.80 254.55
  C 98.53 252.13 102.18 250.95 104.80 250.80
  Q 121.36 249.87 131.75 250.77
  Q 137.88 251.30 138.92 258.10
  Q 141.13 272.52 143.51 287.05
  Z"
/>
<path fill="#0e445c" d="
  M 276.89 297.44
  C 280.29 298.82 286.96 298.90 288.35 294.42
  C 291.13 285.40 264.07 290.64 266.24 274.89
  C 268.14 261.12 293.27 261.33 295.40 275.75
  A 0.86 0.86 0.0 0 1 294.53 276.74
  L 288.50 276.59
  A 0.87 0.86 -9.1 0 1 287.72 276.03
  Q 285.42 269.85 277.99 271.56
  C 272.26 272.87 273.54 278.78 279.07 279.63
  C 287.88 280.99 299.44 284.39 296.06 296.06
  C 293.69 304.27 282.28 305.41 275.50 303.73
  Q 266.03 301.39 264.88 292.45
  A 0.72 0.71 85.6 0 1 265.57 291.64
  L 272.17 291.44
  A 0.75 0.74 -8.7 0 1 272.90 291.97
  C 273.59 294.26 274.52 296.48 276.89 297.44
  Z"
/>
<path fill="#0e445c" d="
  M 394.79 284.51
  A 19.50 19.50 0.0 0 1 375.29 304.01
  A 19.50 19.50 0.0 0 1 355.79 284.51
  A 19.50 19.50 0.0 0 1 375.29 265.01
  A 19.50 19.50 0.0 0 1 394.79 284.51
  Z
  M 387.00 284.49
  A 11.74 11.74 0.0 0 0 375.26 272.75
  A 11.74 11.74 0.0 0 0 363.52 284.49
  A 11.74 11.74 0.0 0 0 375.26 296.23
  A 11.74 11.74 0.0 0 0 387.00 284.49
  Z"
/>
<path fill="#0e445c" d="
  M 183.88 288.21
  L 183.44 303.34
  A 0.54 0.54 0.0 0 1 182.87 303.87
  L 176.00 303.55
  A 0.54 0.54 0.0 0 1 175.48 303.01
  L 175.49 265.97
  A 0.54 0.54 0.0 0 1 176.03 265.43
  L 197.28 265.47
  A 0.54 0.54 0.0 0 1 197.82 266.04
  L 197.46 272.14
  A 0.54 0.54 0.0 0 1 196.90 272.64
  L 184.04 272.25
  A 0.54 0.54 0.0 0 0 183.49 272.83
  L 184.11 280.48
  A 0.54 0.54 0.0 0 0 184.66 280.98
  L 196.37 280.65
  A 0.54 0.54 0.0 0 1 196.93 281.19
  L 197.04 287.85
  A 0.54 0.54 0.0 0 1 196.47 288.40
  L 184.46 287.68
  A 0.54 0.54 0.0 0 0 183.88 288.21
  Z"
/>
<path fill="#0e445c" d="
  M 223.65 296.31
  L 221.75 303.16
  A 0.77 0.77 0.0 0 1 221.00 303.73
  L 213.88 303.70
  A 0.77 0.77 0.0 0 1 213.17 302.63
  L 228.22 265.73
  A 0.77 0.77 0.0 0 1 228.95 265.25
  L 234.69 265.33
  A 0.77 0.77 0.0 0 1 235.39 265.82
  L 250.24 302.75
  A 0.77 0.77 0.0 0 1 249.48 303.81
  L 242.50 303.33
  A 0.77 0.77 0.0 0 1 241.83 302.81
  L 239.62 296.27
  A 0.77 0.77 0.0 0 0 238.89 295.75
  L 224.40 295.75
  A 0.77 0.77 0.0 0 0 223.65 296.31
  Z
  M 226.88 287.96
  A 1.18 1.18 0.0 0 0 228.01 289.52
  L 235.39 289.48
  A 1.18 1.18 0.0 0 0 236.50 287.91
  L 232.75 277.00
  A 1.18 1.18 0.0 0 0 230.51 277.01
  L 226.88 287.96
  Z"
/>
<path fill="#0e445c" d="
  M 310.75 271.70
  L 310.75 266.05
  A 0.85 0.85 0.0 0 1 311.61 265.20
  L 340.17 265.42
  A 0.85 0.85 0.0 0 1 341.01 266.28
  L 340.97 271.79
  A 0.85 0.85 0.0 0 1 340.10 272.63
  L 330.64 272.45
  A 0.85 0.85 0.0 0 0 329.78 273.30
  L 329.95 302.95
  A 0.85 0.85 0.0 0 1 329.06 303.81
  L 322.77 303.45
  A 0.85 0.85 0.0 0 1 321.97 302.60
  L 322.01 273.18
  A 0.85 0.85 0.0 0 0 321.14 272.33
  L 311.62 272.55
  A 0.85 0.85 0.0 0 1 310.75 271.70
  Z"
/>
<path fill="#0e445c" d="
  M 420.25 292.02
  L 420.70 302.80
  A 0.97 0.97 0.0 0 1 419.70 303.81
  L 413.18 303.62
  Q 412.52 303.60 412.52 302.93
  L 412.46 266.00
  A 0.81 0.81 0.0 0 1 413.33 265.19
  C 418.40 265.54 427.26 264.46 431.60 266.55
  C 440.90 271.02 440.85 285.49 430.31 289.07
  A 0.83 0.83 0.0 0 0 429.93 290.37
  L 440.00 303.07
  A 0.54 0.54 0.0 0 1 439.54 303.95
  L 430.34 303.38
  A 1.05 1.04 75.0 0 1 429.52 302.90
  L 422.26 291.39
  A 1.09 1.09 0.0 0 0 420.25 292.02
  Z
  M 420.42 272.52
  L 420.44 282.58
  A 0.97 0.97 0.0 0 0 421.41 283.55
  L 425.11 283.54
  A 5.66 5.65 89.9 0 0 430.75 277.87
  L 430.75 277.19
  A 5.66 5.65 89.9 0 0 425.09 271.54
  L 421.39 271.55
  A 0.97 0.97 0.0 0 0 420.42 272.52
  Z"
/>
<path fill="#0e445c" d="
  M 455.48 302.74
  L 455.49 266.18
  A 0.95 0.95 0.0 0 1 456.45 265.23
  L 476.70 265.36
  A 0.95 0.95 0.0 0 1 477.64 266.31
  L 477.64 271.76
  A 0.95 0.95 0.0 0 1 476.65 272.71
  L 464.41 272.24
  A 0.95 0.95 0.0 0 0 463.43 273.19
  L 463.46 279.94
  A 0.95 0.95 0.0 0 0 464.43 280.88
  L 476.03 280.70
  A 0.95 0.95 0.0 0 1 477.00 281.65
  L 477.00 287.40
  A 0.95 0.95 0.0 0 1 476.01 288.35
  L 464.50 287.82
  A 0.95 0.95 0.0 0 0 463.51 288.77
  L 463.49 295.88
  A 0.95 0.95 0.0 0 0 464.48 296.83
  L 476.48 296.32
  A 0.95 0.95 0.0 0 1 477.47 297.22
  L 477.74 302.63
  A 0.95 0.95 0.0 0 1 476.79 303.63
  L 456.43 303.69
  A 0.95 0.95 0.0 0 1 455.48 302.74
  Z"
/>
<path fill="#01a2de" d="
  M 99.05 286.75
  L 100.14 287.36
  A 0.87 0.76 -24.9 0 0 100.52 287.47
  Q 117.25 288.27 134.00 288.24
  Q 135.59 288.24 136.46 287.62
  Q 137.46 289.77 137.52 292.86
  C 137.55 294.77 138.32 295.96 139.95 296.74
  A 2.10 2.09 14.8 0 0 142.95 295.00
  L 143.51 287.05
  C 151.02 289.13 159.76 288.36 159.74 298.85
  Q 159.67 330.94 160.08 363.02
  C 160.17 369.59 155.01 369.58 149.53 369.66
  Q 102.02 370.36 85.75 369.99
  Q 80.55 369.88 77.27 364.56
  A 1.41 1.40 -60.9 0 1 77.05 363.77
  Q 77.29 332.28 77.28 300.82
  C 77.28 288.85 82.02 289.19 91.67 286.99
  Q 90.86 292.65 93.51 295.75
  C 94.51 296.92 96.71 297.25 97.23 295.51
  Q 98.27 292.03 98.40 287.18
  Q 98.41 286.55 99.05 286.75
  Z
  M 150.98 301.59
  L 129.22 305.53
  Q 126.43 304.56 122.72 305.93
  C 111.96 309.92 97.13 314.78 92.30 326.07
  Q 86.57 339.47 85.72 355.83
  Q 85.67 356.65 86.13 355.97
  C 87.99 353.19 89.18 351.08 91.92 349.08
  C 101.15 342.35 108.28 337.88 118.62 335.62
  A 0.66 0.65 -12.2 0 1 119.39 336.11
  L 119.71 337.51
  Q 119.84 338.07 120.41 338.13
  Q 122.67 338.37 123.00 336.38
  Q 131.16 333.88 138.85 329.72
  C 146.08 325.80 149.41 310.03 151.28 302.29
  Q 152.62 301.44 152.48 300.26
  Q 152.37 299.36 152.12 300.23
  Q 151.74 301.51 150.98 301.59
  Z"
/>
<path fill="#026d95" d="
  M 151.28 302.29
  L 150.98 301.59
  Q 151.74 301.51 152.12 300.23
  Q 152.37 299.36 152.48 300.26
  Q 152.62 301.44 151.28 302.29
  Z"
/>
<path fill="#fdc503" d="
  M 129.22 305.53
  Q 125.70 307.90 124.83 311.72
  C 123.52 317.46 120.43 327.00 120.24 334.54
  C 120.20 336.42 121.35 336.86 123.00 336.38
  Q 122.67 338.37 120.41 338.13
  Q 119.84 338.07 119.71 337.51
  L 119.39 336.11
  A 0.66 0.65 -12.2 0 0 118.62 335.62
  C 108.28 337.88 101.15 342.35 91.92 349.08
  C 89.18 351.08 87.99 353.19 86.13 355.97
  Q 85.67 356.65 85.72 355.83
  Q 86.57 339.47 92.30 326.07
  C 97.13 314.78 111.96 309.92 122.72 305.93
  Q 126.43 304.56 129.22 305.53
  Z"
/>
<path fill="#e79559" d="
  M 238.48 348.54
  A 0.58 0.58 0.0 0 1 238.47 347.57
  C 243.16 344.41 237.11 338.13 245.10 337.11
  A 0.92 0.92 0.0 0 1 245.54 338.89
  C 242.23 340.14 240.49 346.80 245.71 347.24
  A 0.71 0.71 0.0 0 1 245.67 348.65
  C 241.09 348.78 242.84 356.67 242.60 359.73
  Q 242.54 360.59 242.07 360.83
  A 0.89 0.88 73.0 0 1 240.78 360.14
  C 240.40 356.53 241.68 350.65 238.48 348.54
  Z"
/>
<path fill="#e79559" d="
  M 309.58 349.78
  L 309.46 360.53
  A 0.42 0.42 0.0 0 1 308.95 360.94
  Q 307.93 360.72 307.88 359.68
  Q 307.72 355.72 307.77 351.74
  Q 307.80 348.90 304.91 348.58
  A 0.63 0.63 0.0 0 1 304.94 347.33
  Q 308.41 347.07 307.86 343.41
  Q 307.80 342.99 307.89 342.57
  Q 308.13 341.49 308.81 341.86
  Q 309.23 342.09 309.30 342.56
  L 309.85 346.48
  A 0.77 0.77 0.0 0 0 310.44 347.13
  L 312.70 347.64
  A 0.39 0.39 0.0 0 1 312.68 348.41
  L 310.38 348.83
  A 0.98 0.97 85.4 0 0 309.58 349.78
  Z"
/>
<path fill="#e79559" d="
  M 379.74 349.02
  A 1.29 1.05 8.7 0 1 379.01 348.21
  C 378.93 347.86 382.13 345.16 382.27 343.01
  A 1.37 1.37 0.0 0 1 383.58 341.72
  Q 384.15 341.69 384.43 342.31
  Q 384.59 342.65 384.49 343.24
  Q 383.87 346.83 387.60 347.24
  A 0.64 0.64 0.0 0 1 387.80 348.46
  L 384.99 349.77
  A 0.85 0.85 0.0 0 0 384.50 350.54
  L 384.49 360.19
  A 0.95 0.95 0.0 0 1 382.62 360.40
  Q 381.54 355.61 382.47 350.84
  Q 382.59 350.23 382.02 349.99
  L 379.74 349.02
  Z"
/>
<ellipse fill="#e79559" cx="0.00" cy="0.00" transform="translate(257.38,343.20) rotate(-24.0)" rx="1.18" ry="1.01"/>
<ellipse fill="#e79559" cx="0.00" cy="0.00" transform="translate(293.57,343.27) rotate(-9.5)" rx="1.44" ry="0.93"/>
<ellipse fill="#e79559" cx="0.00" cy="0.00" transform="translate(203.74,343.22) rotate(-0.1)" rx="1.04" ry="0.80"/>
<path fill="#e79559" d="
  M 450.2353 356.5176
  A 6.40 6.40 0.0 0 1 442.6103 361.3940
  L 441.2429 361.0933
  A 6.40 6.40 0.0 0 1 436.3665 353.4683
  L 436.8647 351.2024
  A 6.40 6.40 0.0 0 1 444.4897 346.3260
  L 445.8571 346.6267
  A 6.40 6.40 0.0 0 1 450.7335 354.2517
  L 450.2353 356.5176
  Z
  M 441.19 352.87
  L 445.74 352.37
  A 0.63 0.63 0.0 0 0 446.30 351.68
  L 446.28 351.51
  A 2.75 2.20 -6.2 0 0 443.31 349.62
  L 442.97 349.66
  A 2.75 2.20 -6.2 0 0 440.47 352.14
  L 440.49 352.31
  A 0.63 0.63 0.0 0 0 441.19 352.87
  Z
  M 440.91 357.14
  Q 444.56 359.12 446.83 356.01
  A 0.37 0.37 0.0 0 0 446.41 355.44
  Q 443.76 356.34 441.38 354.89
  Q 440.67 354.46 440.59 355.29
  L 440.48 356.33
  A 0.84 0.83 -73.3 0 0 440.91 357.14
  Z"
/>
<path fill="#e79559" d="
  M 411.06 353.88
  A 7.36 7.36 0.0 0 1 403.70 361.24
  A 7.36 7.36 0.0 0 1 396.34 353.88
  A 7.36 7.36 0.0 0 1 403.70 346.52
  A 7.36 7.36 0.0 0 1 411.06 353.88
  Z
  M 408.50 353.93
  A 4.74 4.74 0.0 0 0 403.76 349.19
  A 4.74 4.74 0.0 0 0 399.02 353.93
  A 4.74 4.74 0.0 0 0 403.76 358.67
  A 4.74 4.74 0.0 0 0 408.50 353.93
  Z"
/>
<path fill="#e79559" d="
  M 333.76 359.50
  A 3.23 3.23 0.0 0 1 329.67 361.53
  L 326.68 360.51
  A 7.06 7.05 -71.3 0 1 322.26 351.56
  L 322.27 351.55
  A 7.06 7.05 -71.3 0 1 331.21 347.12
  L 334.20 348.13
  A 3.23 3.23 0.0 0 1 336.23 352.23
  L 333.76 359.50
  Z
  M 332.6574 351.0598
  A 1.68 1.68 0.0 0 0 330.9483 349.4094
  L 327.4089 349.4712
  A 1.68 1.68 0.0 0 0 325.7584 351.1802
  L 325.7626 351.4202
  A 1.68 1.68 0.0 0 0 327.4717 353.0706
  L 331.0111 353.0088
  A 1.68 1.68 0.0 0 0 332.6616 351.2998
  L 332.6574 351.0598
  Z
  M 332.94 354.58
  L 325.83 354.43
  A 0.42 0.42 0.0 0 0 325.40 354.84
  L 325.40 354.91
  A 3.83 3.77 1.2 0 0 329.15 358.76
  L 329.45 358.76
  A 3.83 3.77 1.2 0 0 333.35 355.07
  L 333.35 355.00
  A 0.42 0.42 0.0 0 0 332.94 354.58
  Z"
/>
<path fill="#e79559" d="
  M 363.40 350.56
  Q 365.28 353.01 368.50 353.16
  A 1.10 1.09 68.6 0 1 369.22 353.48
  C 374.82 359.31 366.10 363.97 361.10 359.96
  Q 360.75 359.67 360.52 359.28
  Q 359.75 357.97 360.79 356.99
  A 0.66 0.66 0.0 0 1 361.66 356.95
  L 364.54 359.23
  A 1.89 1.88 -64.2 0 0 367.54 358.18
  C 368.81 352.83 359.68 357.16 360.21 349.52
  A 1.41 1.37 -19.3 0 1 360.68 348.58
  Q 364.23 345.41 368.80 347.43
  A 1.89 1.89 0.0 0 1 369.93 349.32
  Q 369.79 351.01 368.33 350.74
  Q 367.92 350.66 367.66 350.34
  Q 366.06 348.34 363.71 349.36
  A 0.79 0.79 0.0 0 0 363.40 350.56
  Z"
/>
<path fill="#e79559" d="
  M 421.57 360.61
  A 0.53 0.52 4.3 0 1 421.11 360.08
  L 421.31 348.16
  Q 421.32 347.71 421.77 347.63
  L 427.42 346.62
  Q 428.16 346.49 428.30 347.23
  L 428.55 348.60
  Q 428.66 349.21 428.07 349.38
  L 425.28 350.18
  A 1.00 0.99 -1.1 0 0 424.59 350.89
  Q 423.72 354.40 423.98 357.98
  C 424.11 359.79 423.52 360.89 421.57 360.61
  Z"
/>
<path fill="#e79559" d="
  M 226.00 358.25
  C 226.25 355.45 227.12 346.41 221.02 349.37
  C 217.80 350.93 218.88 357.40 218.38 360.13
  A 0.95 0.95 0.0 0 1 216.50 359.96
  L 216.50 347.99
  Q 216.50 347.38 217.09 347.50
  C 221.41 348.35 226.98 344.17 228.10 351.61
  Q 228.77 356.11 227.88 360.56
  A 0.61 0.61 0.0 0 1 226.97 360.97
  Q 225.82 360.29 226.00 358.25
  Z"
/>
<rect fill="#e79559" x="256.51" y="347.03" width="1.72" height="13.70" rx="0.84"/>
<path fill="#e79559" d="
  M 270.32 360.57
  Q 270.00 360.21 270.00 359.73
  L 270.00 348.24
  Q 270.00 347.69 270.55 347.70
  C 275.15 347.78 281.10 344.65 281.76 352.03
  C 281.95 354.05 282.54 359.10 281.47 360.68
  A 0.90 0.90 0.0 0 1 279.82 360.25
  C 279.57 357.44 280.70 348.25 275.99 349.01
  C 271.73 349.70 272.16 355.58 271.98 359.67
  Q 271.96 360.17 271.65 360.57
  Q 271.01 361.37 270.32 360.57
  Z"
/>
<rect fill="#e79559" x="-0.98" y="-6.71" transform="translate(203.75,354.02) rotate(0.2)" width="1.96" height="13.42" rx="0.95"/>
<rect fill="#e79559" x="-1.14" y="-6.71" transform="translate(293.61,353.99) rotate(-0.3)" width="2.28" height="13.42" rx="0.94"/>
</svg>
