<?xml version="1.0" encoding="UTF-8"?>
<svg xmlns="http://www.w3.org/2000/svg" xmlns:xlink="http://www.w3.org/1999/xlink" width="250px" height="130px" viewBox="0 0 148 148" version="1.1">
<g id="surface1">
<path style="fill:none;stroke-width:2;stroke-linecap:butt;stroke-linejoin:miter;stroke:rgb(3.137255%,45.098039%,61.568627%);stroke-opacity:1;stroke-miterlimit:4;" d="M 307.142103 118.731524 C 306.78579 119.114231 306.337099 119.233003 305.782834 119.074641 C 301.863387 117.92652 295.014253 118.362014 291.002428 118.282834 " transform="matrix(0.296,0,0,0.296,0,0)"/>
<path style="fill:none;stroke-width:2;stroke-linecap:butt;stroke-linejoin:miter;stroke:rgb(3.137255%,45.098039%,61.568627%);stroke-opacity:1;stroke-miterlimit:4;" d="M 354.083087 121.238915 C 355.943834 124.010241 356.920397 127.13788 357.025971 130.621833 C 357.039168 130.912162 356.894003 131.070524 356.603674 131.110114 L 351.668074 131.664379 C 351.245777 131.717166 350.929054 132.099873 350.955448 132.535367 C 351.087416 135.333087 350.440773 137.616132 349.015519 139.344911 " transform="matrix(0.296,0,0,0.296,0,0)"/>
<path style="fill:none;stroke-width:2;stroke-linecap:butt;stroke-linejoin:miter;stroke:rgb(3.137255%,45.098039%,61.568627%);stroke-opacity:1;stroke-miterlimit:4;" d="M 348.474451 154.745566 C 351.324958 148.793813 354.967272 143.145587 359.388197 137.814084 C 359.440984 137.761296 359.467378 137.7481 359.493771 137.7481 C 359.586149 137.774493 359.665329 137.800887 359.74451 137.82728 C 359.770904 137.840477 359.784101 137.853674 359.797297 137.880068 C 359.810494 137.906461 359.797297 137.932855 359.784101 137.946052 C 354.558171 146.457981 349.609375 155.14147 344.924514 163.970122 C 344.77935 164.260452 344.85853 164.458404 345.175253 164.550781 C 345.914274 164.76193 346.230997 165.250211 346.125422 166.015625 C 345.782306 168.391047 345.92747 170.462943 346.534523 172.231313 C 346.640097 172.548036 346.877639 172.798775 347.194362 172.930743 C 353.449641 175.358953 359.652133 172.917546 359.70492 165.46136 C 359.731313 161.132812 360.153611 157.794024 360.985008 155.458193 " transform="matrix(0.296,0,0,0.296,0,0)"/>
<path style="fill:none;stroke-width:2;stroke-linecap:butt;stroke-linejoin:miter;stroke:rgb(3.137255%,45.098039%,61.568627%);stroke-opacity:1;stroke-miterlimit:4;" d="M 377.296242 136.296453 C 378.338788 135.808171 380.3447 135.161529 383.274388 134.382918 C 386.837521 133.432749 388.790646 130.516258 389.133763 125.633446 " transform="matrix(0.296,0,0,0.296,0,0)"/>
<path style="fill:none;stroke-width:2;stroke-linecap:butt;stroke-linejoin:miter;stroke:rgb(0.784314%,53.333333%,72.941176%);stroke-opacity:1;stroke-miterlimit:4;" d="M 327.01647 202.42557 C 325.485642 204.180743 324.759818 206.213049 324.812606 208.496094 C 324.838999 209.617821 324.509079 210.106102 323.822846 209.974134 " transform="matrix(0.296,0,0,0.296,0,0)"/>
<path style="fill:none;stroke-width:2;stroke-linecap:butt;stroke-linejoin:miter;stroke:rgb(3.137255%,45.098039%,61.568627%);stroke-opacity:1;stroke-miterlimit:4;" d="M 279.323269 220.544764 C 277.911212 220.267631 277.528505 219.40984 278.175148 217.944996 C 278.531461 217.126795 278.544658 216.203019 278.201541 215.371622 C 277.858425 214.553421 277.198585 213.893581 276.367188 213.563661 C 275.892103 213.365709 275.24546 212.719067 274.440456 211.59734 " transform="matrix(0.296,0,0,0.296,0,0)"/>
<path style="fill:none;stroke-width:2;stroke-linecap:butt;stroke-linejoin:miter;stroke:rgb(3.137255%,45.098039%,61.568627%);stroke-opacity:1;stroke-miterlimit:4;" d="M 143.515097 287.056588 L 142.947635 295.001056 C 142.908045 295.687289 142.512141 296.320735 141.918285 296.663851 C 141.311233 297.006968 140.572213 297.046558 139.951964 296.743032 C 138.315562 295.964421 137.550148 294.763514 137.523754 292.863176 C 137.484164 290.804476 137.127851 289.049303 136.454814 287.62405 " transform="matrix(0.296,0,0,0.296,0,0)"/>
<path style="fill:none;stroke-width:2;stroke-linecap:butt;stroke-linejoin:miter;stroke:rgb(3.137255%,45.098039%,61.568627%);stroke-opacity:1;stroke-miterlimit:4;" d="M 99.05511 286.753062 C 98.619616 286.621094 98.408467 286.766258 98.39527 287.175359 C 98.31609 290.408573 97.920186 293.193095 97.233953 295.515731 C 96.706081 297.24451 94.515414 296.91459 93.512458 295.753273 C 91.744088 293.681377 91.123839 290.764886 91.664907 286.990604 " transform="matrix(0.296,0,0,0.296,0,0)"/>
<path style="fill:none;stroke-width:2;stroke-linecap:butt;stroke-linejoin:miter;stroke:rgb(49.803922%,70.588235%,44.313725%);stroke-opacity:1;stroke-miterlimit:4;" d="M 129.222973 305.532095 C 127.362226 304.885452 125.197952 305.01742 122.716955 305.927998 C 111.961571 309.913429 97.128378 314.783045 92.298353 326.066301 C 88.484481 335.000528 86.280617 344.924514 85.726351 355.825063 C 85.686761 356.379329 85.818729 356.418919 86.135452 355.970228 C 87.996199 353.185705 89.18391 351.074219 91.915646 349.081503 C 101.153399 342.35114 108.279666 337.877428 118.62595 335.620777 C 118.969067 335.554793 119.312183 335.765942 119.391364 336.109058 L 119.708087 337.507918 C 119.800465 337.877428 120.02481 338.088577 120.407517 338.128167 C 121.911951 338.286529 122.782939 337.70587 122.994088 336.386191 " transform="matrix(0.296,0,0,0.296,0,0)"/>
<path style="fill:none;stroke-width:2;stroke-linecap:butt;stroke-linejoin:miter;stroke:rgb(0.784314%,53.333333%,72.941176%);stroke-opacity:1;stroke-miterlimit:4;" d="M 151.27481 302.285684 C 152.172192 301.718222 152.568095 301.045186 152.475718 300.266575 C 152.409734 299.659523 152.290963 299.646326 152.119405 300.226985 C 151.868666 301.084776 151.485959 301.533467 150.984481 301.586254 " transform="matrix(0.296,0,0,0.296,0,0)"/>
<path style=" stroke:none;fill-rule:nonzero;fill:rgb(5.490196%,26.666667%,36.078431%);fill-opacity:1;" d="M 90.914062 35.144531 C 90.808594 35.257812 90.675781 35.292969 90.511719 35.246094 C 89.351562 34.90625 87.324219 35.035156 86.136719 35.011719 L 83.371094 27.78125 C 83.335938 27.691406 83.351562 27.605469 83.410156 27.527344 C 84.519531 26.082031 86.203125 28.261719 86.921875 29.269531 C 88.296875 31.207031 89.628906 33.164062 90.914062 35.144531 Z M 90.914062 35.144531 "/>
<path style=" stroke:none;fill-rule:nonzero;fill:rgb(0.392157%,63.529412%,87.058824%);fill-opacity:1;" d="M 86.136719 35.011719 C 87.324219 35.035156 89.351562 34.90625 90.511719 35.246094 C 90.675781 35.292969 90.808594 35.257812 90.914062 35.144531 C 95.53125 35.519531 100.144531 35.695312 104.808594 35.886719 C 105.359375 36.707031 105.648438 37.632812 105.679688 38.664062 C 105.683594 38.75 105.640625 38.796875 105.554688 38.808594 L 104.09375 38.972656 C 103.96875 38.988281 103.875 39.101562 103.882812 39.230469 C 103.921875 40.058594 103.730469 40.734375 103.308594 41.246094 L 103.542969 39.769531 C 103.585938 39.503906 103.441406 39.246094 103.191406 39.148438 C 102.71875 38.960938 102.417969 39.4375 102.296875 39.851562 C 101.636719 42.125 100.667969 45.289062 100.710938 47.636719 C 100.714844 47.785156 100.785156 47.828125 100.917969 47.761719 L 101.480469 47.492188 C 101.546875 47.457031 101.628906 47.476562 101.671875 47.539062 C 101.824219 47.757812 102.003906 47.785156 102.214844 47.613281 C 102.785156 47.140625 103.097656 46.539062 103.148438 45.804688 C 103.992188 44.042969 105.070312 42.371094 106.378906 40.792969 C 106.394531 40.777344 106.402344 40.773438 106.410156 40.773438 C 106.4375 40.78125 106.460938 40.789062 106.484375 40.796875 C 106.492188 40.800781 106.496094 40.804688 106.5 40.8125 C 106.503906 40.820312 106.5 40.828125 106.496094 40.832031 C 104.949219 43.351562 103.484375 45.921875 102.097656 48.535156 C 102.054688 48.621094 102.078125 48.679688 102.171875 48.707031 C 102.390625 48.769531 102.484375 48.914062 102.453125 49.140625 C 102.351562 49.84375 102.394531 50.457031 102.574219 50.980469 C 102.605469 51.074219 102.675781 51.148438 102.769531 51.1875 C 104.621094 51.90625 106.457031 51.183594 106.472656 48.976562 C 106.480469 47.695312 106.605469 46.707031 106.851562 46.015625 C 107.148438 46.199219 107.40625 46.164062 107.625 45.90625 C 109.59375 43.617188 110.953125 41.996094 111.710938 41.042969 C 111.851562 40.867188 111.839844 40.632812 111.679688 40.34375 C 111.988281 40.199219 112.582031 40.007812 113.449219 39.777344 C 114.503906 39.496094 115.082031 38.632812 115.183594 37.1875 C 116.554688 38.484375 116.695312 39.886719 115.609375 41.394531 C 113.722656 44.015625 111.351562 46.894531 108.492188 50.03125 C 107.789062 50.804688 106.785156 51.59375 105.972656 52.425781 C 105.902344 52.496094 105.820312 52.542969 105.726562 52.566406 C 103.640625 53.074219 101.792969 54.171875 100.179688 55.859375 C 98.738281 57.375 97.609375 58.726562 96.796875 59.917969 C 96.34375 60.4375 96.128906 61.039062 96.144531 61.714844 C 96.152344 62.046875 96.054688 62.191406 95.851562 62.152344 C 92.34375 62.160156 88.867188 62.347656 85.417969 62.710938 C 84.039062 62.859375 82.570312 63.703125 82.679688 65.28125 C 82.261719 65.199219 82.148438 64.945312 82.339844 64.511719 C 82.445312 64.269531 82.449219 63.996094 82.347656 63.75 C 82.246094 63.507812 82.050781 63.3125 81.804688 63.214844 C 81.664062 63.15625 81.472656 62.964844 81.234375 62.632812 L 87.105469 55.933594 C 87.1875 55.839844 87.207031 55.703125 87.152344 55.585938 C 87.097656 55.472656 86.980469 55.398438 86.851562 55.402344 C 84.597656 55.480469 82.335938 55.515625 80.066406 55.503906 C 77.6875 55.492188 76.171875 54.417969 75.335938 52.15625 C 73.867188 48.203125 72.273438 44.296875 70.546875 40.449219 C 70.507812 40.355469 70.433594 40.308594 70.332031 40.308594 C 60.121094 40.25 49.925781 40.210938 39.742188 40.195312 C 38.035156 40.195312 33.828125 40.648438 32.9375 38.832031 C 32.886719 38.734375 32.835938 38.6875 32.78125 38.683594 L 26.183594 38.441406 C 26.054688 38.433594 25.949219 38.335938 25.929688 38.207031 C 25.914062 38.078125 25.988281 37.953125 26.113281 37.910156 C 26.390625 37.820312 26.714844 37.773438 27.085938 37.773438 C 41.339844 37.652344 53.402344 37.621094 63.269531 37.679688 C 63.847656 37.683594 64.132812 37.71875 64.5625 37.289062 C 65.878906 35.980469 66.695312 35.011719 68.726562 35.003906 C 73.445312 34.976562 78.160156 35.023438 82.878906 35.136719 C 82.96875 35.140625 83.507812 35.195312 84.492188 35.308594 C 85.195312 35.386719 85.742188 35.289062 86.136719 35.011719 Z M 81.949219 50.414062 L 82.125 50.007812 C 82.167969 49.90625 82.179688 49.800781 82.15625 49.691406 L 79.894531 38.582031 C 79.863281 38.4375 79.734375 38.332031 79.589844 38.332031 L 76.449219 38.332031 C 76.335938 38.332031 76.230469 38.382812 76.167969 38.472656 C 76.101562 38.5625 76.082031 38.679688 76.113281 38.785156 C 77.257812 42.496094 78.5 45.996094 79.847656 49.285156 C 80.246094 50.261719 80.757812 50.851562 81.859375 50.496094 C 81.898438 50.480469 81.933594 50.453125 81.949219 50.414062 Z M 86.09375 38.367188 L 84.527344 38.597656 C 84.148438 38.65625 83.886719 39.007812 83.941406 39.390625 L 84.082031 40.347656 C 84.90625 45.933594 85.910156 50.414062 86.324219 50.355469 L 87.777344 50.140625 C 88.1875 50.066406 87.851562 45.492188 87.027344 39.914062 L 86.886719 38.957031 C 86.832031 38.574219 86.476562 38.3125 86.09375 38.367188 Z M 93.921875 50.160156 C 93.660156 46.671875 93.730469 43.164062 93.25 39.671875 C 93.101562 38.582031 91.871094 38.59375 90.996094 38.75 C 90.894531 38.765625 90.835938 38.828125 90.820312 38.925781 C 90.710938 39.679688 90.894531 40.601562 90.910156 41.097656 C 91 43.613281 91.152344 46.128906 91.367188 48.636719 C 91.527344 50.511719 92.25 50.054688 93.636719 50.398438 C 93.707031 50.417969 93.78125 50.402344 93.839844 50.351562 C 93.894531 50.304688 93.925781 50.234375 93.921875 50.160156 Z M 98.707031 39.027344 L 97.304688 38.984375 C 96.960938 38.976562 96.675781 39.246094 96.664062 39.585938 L 96.648438 40.171875 C 96.484375 45.675781 96.785156 50.148438 97.324219 50.164062 L 98.023438 50.183594 C 98.5625 50.203125 99.128906 45.757812 99.292969 40.253906 L 99.3125 39.667969 C 99.320312 39.324219 99.050781 39.039062 98.707031 39.027344 Z M 88.890625 57.410156 C 88.195312 58.023438 87.496094 58.636719 86.785156 59.253906 C 86.519531 59.480469 86.40625 59.710938 86.453125 59.941406 C 86.496094 60.152344 86.621094 60.261719 86.835938 60.273438 C 89.003906 60.398438 91.09375 60.402344 93.097656 60.289062 C 93.558594 60.261719 93.832031 60.324219 94.167969 59.90625 C 95.496094 58.257812 96.882812 56.773438 98.328125 55.453125 C 98.582031 55.222656 98.539062 55.101562 98.195312 55.09375 L 92.464844 54.953125 C 92.378906 54.949219 92.300781 54.980469 92.238281 55.039062 C 91.550781 55.65625 90.800781 56.1875 89.988281 56.632812 C 89.59375 56.851562 89.226562 57.109375 88.890625 57.410156 Z M 88.890625 57.410156 "/>
<path style=" stroke:none;fill-rule:nonzero;fill:rgb(5.490196%,26.666667%,36.078431%);fill-opacity:1;" d="M 104.808594 35.886719 C 106.855469 35.902344 109.316406 36.027344 112.183594 36.261719 C 113.464844 36.363281 114.46875 36.671875 115.183594 37.1875 C 115.082031 38.632812 114.503906 39.496094 113.449219 39.777344 C 112.582031 40.007812 111.988281 40.199219 111.679688 40.34375 C 109.289062 41.671875 107.683594 43.5625 106.851562 46.015625 C 106.605469 46.707031 106.480469 47.695312 106.472656 48.976562 C 106.457031 51.183594 104.621094 51.90625 102.769531 51.1875 C 102.675781 51.148438 102.605469 51.074219 102.574219 50.980469 C 102.394531 50.457031 102.351562 49.84375 102.453125 49.140625 C 102.484375 48.914062 102.390625 48.769531 102.171875 48.707031 C 102.078125 48.679688 102.054688 48.621094 102.097656 48.535156 C 103.484375 45.921875 104.949219 43.351562 106.496094 40.832031 C 106.5 40.828125 106.503906 40.820312 106.5 40.8125 C 106.496094 40.804688 106.492188 40.800781 106.484375 40.796875 C 106.460938 40.789062 106.4375 40.78125 106.410156 40.773438 C 106.402344 40.773438 106.394531 40.777344 106.378906 40.792969 C 105.070312 42.371094 103.992188 44.042969 103.148438 45.804688 C 102.8125 45.632812 102.492188 45.691406 102.183594 45.984375 C 102.121094 46.046875 102.082031 46.035156 102.066406 45.945312 C 101.914062 44.972656 102.710938 43.003906 103.308594 41.246094 C 103.730469 40.734375 103.921875 40.058594 103.882812 39.230469 C 103.875 39.101562 103.96875 38.988281 104.09375 38.972656 L 105.554688 38.808594 C 105.640625 38.796875 105.683594 38.75 105.679688 38.664062 C 105.648438 37.632812 105.359375 36.707031 104.808594 35.886719 Z M 104.808594 35.886719 "/>
<path style=" stroke:none;fill-rule:nonzero;fill:rgb(99.215686%,77.254902%,1.176471%);fill-opacity:1;" d="M 74.683594 53.558594 C 76.175781 54.59375 74.457031 56.507812 74.832031 57.929688 C 75.230469 59.464844 76.519531 60.484375 77.617188 61.53125 C 78.238281 62.128906 79.882812 64.085938 78.066406 64.378906 C 76.421875 64.644531 74.074219 64.707031 72.050781 64.691406 C 52.644531 64.570312 37.960938 64.546875 27.988281 64.617188 C 24.730469 64.640625 22.523438 64.621094 21.359375 64.558594 C 21.304688 64.554688 21.289062 64.527344 21.304688 64.476562 C 21.3125 64.453125 21.320312 64.425781 21.328125 64.398438 C 21.332031 64.382812 21.351562 64.375 21.386719 64.375 C 25.203125 63.972656 29.007812 63.492188 32.800781 62.933594 C 33 62.90625 33.171875 62.777344 33.253906 62.59375 L 34.160156 60.558594 C 34.328125 60.183594 34.699219 59.941406 35.113281 59.941406 C 43.121094 59.9375 51.148438 59.9375 59.199219 59.941406 C 59.386719 59.941406 59.75 59.910156 60.285156 59.84375 C 60.378906 59.832031 60.453125 59.789062 60.503906 59.710938 C 61.371094 58.464844 61.886719 56.804688 60.515625 55.726562 C 60.425781 55.65625 60.328125 55.621094 60.222656 55.625 L 50.667969 55.726562 C 50.253906 55.734375 49.878906 55.503906 49.695312 55.140625 C 48.855469 53.476562 48.867188 53.625 47.085938 53.597656 C 43.359375 53.53125 39.929688 53.359375 36.796875 53.078125 C 35.558594 52.96875 35.5625 52.886719 36.800781 52.835938 C 42.332031 52.613281 47.996094 52.542969 53.796875 52.628906 C 60.023438 52.71875 66.222656 52.601562 72.449219 52.886719 C 73.316406 52.929688 74.027344 53.097656 74.683594 53.558594 Z M 74.683594 53.558594 "/>
<path style=" stroke:none;fill-rule:nonzero;fill:rgb(0.784314%,42.745098%,58.431373%);fill-opacity:1;" d="M 96.796875 59.917969 C 97.617188 60.554688 98.339844 60.875 98.960938 60.882812 C 100.296875 60.894531 101.398438 61.078125 102.039062 62.367188 C 103.976562 66.234375 98.476562 69.265625 97.742188 65.132812 C 97.667969 64.710938 97.828125 64.273438 97.832031 63.804688 C 97.832031 63.707031 97.796875 63.617188 97.734375 63.546875 C 97.175781 62.921875 96.550781 62.457031 95.851562 62.152344 C 96.054688 62.191406 96.152344 62.046875 96.144531 61.714844 C 96.128906 61.039062 96.34375 60.4375 96.796875 59.917969 Z M 100.058594 66.429688 C 100.839844 66.445312 101.488281 65.785156 101.503906 64.953125 C 101.519531 64.121094 100.898438 63.433594 100.117188 63.417969 C 99.335938 63.402344 98.691406 64.066406 98.675781 64.898438 C 98.660156 65.730469 99.277344 66.414062 100.058594 66.429688 Z M 100.058594 66.429688 "/>
<path style=" stroke:none;fill-rule:nonzero;fill:rgb(5.490196%,26.666667%,36.078431%);fill-opacity:1;" d="M 81.234375 62.632812 C 81.472656 62.964844 81.664062 63.15625 81.804688 63.214844 C 82.050781 63.3125 82.246094 63.507812 82.347656 63.75 C 82.449219 63.996094 82.445312 64.269531 82.339844 64.511719 C 82.148438 64.945312 82.261719 65.199219 82.679688 65.28125 C 82.683594 67.324219 84.5625 66.664062 85.871094 66.835938 C 86.113281 66.867188 86.308594 67.039062 86.378906 67.273438 C 87.011719 69.410156 83.835938 69.042969 82.765625 68.800781 C 79.621094 68.097656 79.097656 64.792969 81.234375 62.632812 Z M 81.234375 62.632812 "/>
<path style=" stroke:none;fill-rule:nonzero;fill:rgb(5.490196%,26.666667%,36.078431%);fill-opacity:1;" d="M 42.480469 84.96875 L 42.3125 87.320312 C 42.300781 87.523438 42.183594 87.710938 42.007812 87.8125 C 41.828125 87.914062 41.609375 87.925781 41.425781 87.835938 C 40.941406 87.605469 40.714844 87.25 40.707031 86.6875 C 40.695312 86.078125 40.589844 85.558594 40.390625 85.136719 L 39.207031 76.320312 C 39.1875 76.1875 39.074219 76.089844 38.941406 76.085938 L 30.910156 76.035156 C 30.695312 76.035156 30.5 76.164062 30.417969 76.359375 C 30.066406 77.171875 30.226562 78.234375 30.089844 79.023438 C 29.757812 80.964844 29.5 82.914062 29.320312 84.878906 C 29.191406 84.839844 29.128906 84.882812 29.125 85.003906 C 29.101562 85.960938 28.984375 86.785156 28.78125 87.472656 C 28.625 87.984375 27.976562 87.886719 27.679688 87.542969 C 27.15625 86.929688 26.972656 86.066406 27.132812 84.949219 C 27.679688 80.765625 28.285156 77.566406 28.949219 75.347656 C 29.164062 74.628906 30.246094 74.28125 31.019531 74.238281 C 34.289062 74.054688 36.949219 74.050781 38.996094 74.226562 C 40.207031 74.332031 40.914062 75.054688 41.121094 76.398438 C 41.554688 79.242188 42.007812 82.097656 42.480469 84.96875 Z M 42.480469 84.96875 "/>
<path style=" stroke:none;fill-rule:nonzero;fill:rgb(5.490196%,26.666667%,36.078431%);fill-opacity:1;" d="M 81.960938 88.042969 C 82.964844 88.449219 84.941406 88.472656 85.351562 87.148438 C 86.175781 84.476562 78.164062 86.03125 78.808594 81.367188 C 79.371094 77.292969 86.808594 77.355469 87.4375 81.621094 C 87.449219 81.695312 87.425781 81.773438 87.378906 81.828125 C 87.328125 81.886719 87.257812 81.917969 87.179688 81.914062 L 85.394531 81.871094 C 85.292969 81.867188 85.199219 81.800781 85.164062 81.703125 C 84.710938 80.484375 83.75 80.042969 82.285156 80.382812 C 80.589844 80.769531 80.96875 82.519531 82.605469 82.769531 C 85.210938 83.171875 88.632812 84.179688 87.632812 87.632812 C 86.933594 90.0625 83.554688 90.402344 81.546875 89.902344 C 79.679688 89.441406 78.632812 88.328125 78.40625 86.566406 C 78.398438 86.503906 78.414062 86.445312 78.453125 86.398438 C 78.492188 86.351562 78.550781 86.328125 78.609375 86.324219 L 80.5625 86.265625 C 80.660156 86.265625 80.75 86.328125 80.777344 86.421875 C 80.984375 87.101562 81.257812 87.757812 81.960938 88.042969 Z M 81.960938 88.042969 "/>
<path style=" stroke:none;fill-rule:nonzero;fill:rgb(5.490196%,26.666667%,36.078431%);fill-opacity:1;" d="M 116.859375 84.214844 C 116.859375 87.402344 114.273438 89.988281 111.085938 89.988281 C 107.898438 89.988281 105.3125 87.402344 105.3125 84.214844 C 105.3125 81.027344 107.898438 78.441406 111.085938 78.441406 C 114.273438 78.441406 116.859375 81.027344 116.859375 84.214844 Z M 114.550781 84.210938 C 114.550781 82.289062 112.996094 80.734375 111.078125 80.734375 C 109.15625 80.734375 107.601562 82.289062 107.601562 84.210938 C 107.601562 86.128906 109.15625 87.683594 111.078125 87.683594 C 112.996094 87.683594 114.550781 86.128906 114.550781 84.210938 Z M 114.550781 84.210938 "/>
<path style=" stroke:none;fill-rule:nonzero;fill:rgb(5.490196%,26.666667%,36.078431%);fill-opacity:1;" d="M 54.429688 85.308594 L 54.296875 89.789062 C 54.296875 89.832031 54.277344 89.875 54.246094 89.902344 C 54.214844 89.933594 54.171875 89.949219 54.128906 89.945312 L 52.097656 89.851562 C 52.011719 89.847656 51.941406 89.777344 51.941406 89.691406 L 51.945312 78.726562 C 51.945312 78.640625 52.015625 78.566406 52.105469 78.566406 L 58.394531 78.578125 C 58.4375 78.578125 58.480469 78.597656 58.511719 78.628906 C 58.542969 78.660156 58.558594 78.703125 58.554688 78.746094 L 58.449219 80.554688 C 58.441406 80.640625 58.367188 80.703125 58.28125 80.703125 L 54.476562 80.585938 C 54.429688 80.585938 54.386719 80.601562 54.355469 80.636719 C 54.324219 80.667969 54.308594 80.710938 54.3125 80.757812 L 54.496094 83.023438 C 54.503906 83.105469 54.574219 83.171875 54.660156 83.171875 L 58.125 83.074219 C 58.167969 83.070312 58.210938 83.085938 58.242188 83.117188 C 58.273438 83.148438 58.292969 83.1875 58.292969 83.230469 L 58.324219 85.203125 C 58.324219 85.25 58.308594 85.289062 58.273438 85.320312 C 58.242188 85.351562 58.199219 85.367188 58.15625 85.367188 L 54.601562 85.152344 C 54.554688 85.148438 54.511719 85.164062 54.480469 85.195312 C 54.449219 85.222656 54.429688 85.265625 54.429688 85.308594 Z M 54.429688 85.308594 "/>
<path style=" stroke:none;fill-rule:nonzero;fill:rgb(5.490196%,26.666667%,36.078431%);fill-opacity:1;" d="M 66.199219 87.707031 L 65.636719 89.734375 C 65.609375 89.835938 65.519531 89.90625 65.414062 89.902344 L 63.308594 89.894531 C 63.230469 89.894531 63.160156 89.855469 63.117188 89.792969 C 63.074219 89.730469 63.070312 89.648438 63.097656 89.578125 L 67.554688 78.65625 C 67.589844 78.570312 67.675781 78.511719 67.769531 78.515625 L 69.46875 78.539062 C 69.558594 78.539062 69.640625 78.597656 69.675781 78.683594 L 74.070312 89.613281 C 74.101562 89.6875 74.089844 89.769531 74.046875 89.832031 C 74 89.898438 73.925781 89.933594 73.847656 89.929688 L 71.78125 89.785156 C 71.6875 89.777344 71.609375 89.71875 71.582031 89.632812 L 70.925781 87.695312 C 70.894531 87.605469 70.808594 87.542969 70.710938 87.542969 L 66.421875 87.542969 C 66.320312 87.539062 66.226562 87.609375 66.199219 87.707031 Z M 67.15625 85.234375 C 67.121094 85.34375 67.136719 85.460938 67.203125 85.554688 C 67.269531 85.644531 67.378906 85.699219 67.492188 85.699219 L 69.675781 85.6875 C 69.789062 85.6875 69.894531 85.628906 69.960938 85.539062 C 70.023438 85.445312 70.042969 85.328125 70.003906 85.222656 L 68.894531 81.992188 C 68.847656 81.847656 68.710938 81.753906 68.5625 81.753906 C 68.410156 81.753906 68.277344 81.851562 68.230469 81.996094 Z M 67.15625 85.234375 "/>
<path style=" stroke:none;fill-rule:nonzero;fill:rgb(5.490196%,26.666667%,36.078431%);fill-opacity:1;" d="M 91.980469 80.421875 L 91.980469 78.75 C 91.980469 78.683594 92.007812 78.617188 92.058594 78.570312 C 92.105469 78.523438 92.167969 78.5 92.238281 78.5 L 100.691406 78.5625 C 100.828125 78.566406 100.941406 78.679688 100.9375 78.820312 L 100.925781 80.449219 C 100.925781 80.515625 100.898438 80.582031 100.851562 80.628906 C 100.800781 80.675781 100.738281 80.699219 100.667969 80.699219 L 97.871094 80.644531 C 97.800781 80.644531 97.738281 80.671875 97.691406 80.71875 C 97.640625 80.765625 97.613281 80.828125 97.613281 80.898438 L 97.664062 89.671875 C 97.667969 89.742188 97.636719 89.808594 97.589844 89.855469 C 97.539062 89.90625 97.472656 89.929688 97.402344 89.929688 L 95.539062 89.820312 C 95.40625 89.8125 95.304688 89.703125 95.304688 89.570312 L 95.316406 80.859375 C 95.316406 80.792969 95.289062 80.730469 95.238281 80.679688 C 95.191406 80.632812 95.125 80.609375 95.058594 80.609375 L 92.238281 80.675781 C 92.171875 80.675781 92.105469 80.652344 92.058594 80.601562 C 92.007812 80.554688 91.980469 80.492188 91.980469 80.421875 Z M 91.980469 80.421875 "/>
<path style=" stroke:none;fill-rule:nonzero;fill:rgb(5.490196%,26.666667%,36.078431%);fill-opacity:1;" d="M 124.394531 86.4375 L 124.527344 89.628906 C 124.53125 89.707031 124.5 89.785156 124.445312 89.84375 C 124.386719 89.898438 124.3125 89.929688 124.230469 89.929688 L 122.300781 89.871094 C 122.171875 89.867188 122.105469 89.800781 122.105469 89.667969 L 122.089844 78.734375 C 122.089844 78.667969 122.117188 78.605469 122.164062 78.558594 C 122.214844 78.515625 122.277344 78.492188 122.34375 78.496094 C 123.847656 78.601562 126.46875 78.28125 127.753906 78.898438 C 130.507812 80.222656 130.492188 84.503906 127.371094 85.566406 C 127.296875 85.589844 127.238281 85.652344 127.214844 85.726562 C 127.195312 85.804688 127.210938 85.886719 127.257812 85.949219 L 130.238281 89.707031 C 130.28125 89.757812 130.289062 89.828125 130.257812 89.882812 C 130.226562 89.941406 130.167969 89.972656 130.105469 89.96875 L 127.378906 89.800781 C 127.28125 89.796875 127.191406 89.742188 127.136719 89.660156 L 124.988281 86.25 C 124.910156 86.128906 124.757812 86.074219 124.621094 86.117188 C 124.480469 86.160156 124.386719 86.292969 124.394531 86.4375 Z M 124.445312 80.664062 L 124.449219 83.644531 C 124.449219 83.800781 124.578125 83.929688 124.738281 83.929688 L 125.832031 83.929688 C 126.757812 83.925781 127.503906 83.175781 127.503906 82.25 L 127.503906 82.046875 C 127.5 81.121094 126.75 80.375 125.828125 80.375 L 124.730469 80.378906 C 124.574219 80.378906 124.445312 80.507812 124.445312 80.664062 Z M 124.445312 80.664062 "/>
<path style=" stroke:none;fill-rule:nonzero;fill:rgb(5.490196%,26.666667%,36.078431%);fill-opacity:1;" d="M 134.820312 89.609375 L 134.824219 78.789062 C 134.824219 78.714844 134.855469 78.640625 134.910156 78.589844 C 134.960938 78.535156 135.035156 78.507812 135.109375 78.507812 L 141.101562 78.546875 C 141.257812 78.546875 141.382812 78.671875 141.382812 78.828125 L 141.382812 80.441406 C 141.382812 80.519531 141.351562 80.589844 141.296875 80.644531 C 141.238281 80.695312 141.164062 80.726562 141.089844 80.722656 L 137.464844 80.582031 C 137.390625 80.582031 137.316406 80.609375 137.261719 80.664062 C 137.207031 80.714844 137.175781 80.789062 137.175781 80.863281 L 137.183594 82.863281 C 137.183594 82.9375 137.214844 83.007812 137.269531 83.0625 C 137.324219 83.113281 137.394531 83.140625 137.472656 83.140625 L 140.90625 83.085938 C 140.980469 83.085938 141.054688 83.113281 141.109375 83.167969 C 141.160156 83.21875 141.191406 83.292969 141.191406 83.367188 L 141.191406 85.070312 C 141.191406 85.148438 141.160156 85.21875 141.105469 85.273438 C 141.050781 85.328125 140.976562 85.355469 140.898438 85.351562 L 137.492188 85.195312 C 137.414062 85.191406 137.339844 85.21875 137.285156 85.273438 C 137.230469 85.324219 137.199219 85.398438 137.199219 85.476562 L 137.191406 87.582031 C 137.191406 87.65625 137.222656 87.730469 137.28125 87.785156 C 137.335938 87.835938 137.410156 87.863281 137.484375 87.863281 L 141.039062 87.710938 C 141.191406 87.703125 141.324219 87.824219 141.332031 87.976562 L 141.410156 89.578125 C 141.414062 89.65625 141.386719 89.730469 141.335938 89.785156 C 141.28125 89.84375 141.207031 89.875 141.128906 89.875 L 135.101562 89.890625 C 134.949219 89.890625 134.820312 89.765625 134.820312 89.609375 Z M 134.820312 89.609375 "/>
<path style=" stroke:none;fill-rule:nonzero;fill:rgb(0.392157%,63.529412%,87.058824%);fill-opacity:1;" d="M 29.320312 84.878906 L 29.640625 85.058594 C 29.675781 85.078125 29.714844 85.089844 29.753906 85.089844 C 33.054688 85.25 36.359375 85.324219 39.664062 85.320312 C 39.976562 85.320312 40.21875 85.257812 40.390625 85.136719 C 40.589844 85.558594 40.695312 86.078125 40.707031 86.6875 C 40.714844 87.25 40.941406 87.605469 41.425781 87.835938 C 41.609375 87.925781 41.828125 87.914062 42.007812 87.8125 C 42.183594 87.710938 42.300781 87.523438 42.3125 87.320312 L 42.480469 84.96875 C 44.703125 85.582031 47.289062 85.355469 47.28125 88.460938 C 47.269531 94.792969 47.304688 101.125 47.382812 107.453125 C 47.410156 109.398438 45.882812 109.394531 44.261719 109.417969 C 34.886719 109.558594 28.59375 109.589844 25.382812 109.515625 C 24.355469 109.496094 23.519531 108.960938 22.871094 107.910156 C 22.828125 107.839844 22.804688 107.757812 22.808594 107.675781 C 22.855469 101.460938 22.875 95.25 22.875 89.042969 C 22.875 85.5 24.277344 85.601562 27.132812 84.949219 C 26.972656 86.066406 27.15625 86.929688 27.679688 87.542969 C 27.976562 87.886719 28.625 87.984375 28.78125 87.472656 C 28.984375 86.785156 29.101562 85.960938 29.125 85.003906 C 29.128906 84.882812 29.191406 84.839844 29.320312 84.878906 Z M 44.691406 89.269531 L 38.25 90.4375 C 37.699219 90.246094 37.058594 90.285156 36.324219 90.554688 C 33.140625 91.734375 28.75 93.175781 27.320312 96.515625 C 26.191406 99.160156 25.539062 102.097656 25.375 105.324219 C 25.363281 105.488281 25.402344 105.5 25.496094 105.367188 C 26.046875 104.542969 26.398438 103.917969 27.207031 103.328125 C 29.941406 101.335938 32.050781 100.011719 35.113281 99.34375 C 35.214844 99.324219 35.316406 99.386719 35.339844 99.488281 L 35.433594 99.902344 C 35.460938 100.011719 35.527344 100.074219 35.640625 100.085938 C 36.085938 100.132812 36.34375 99.960938 36.40625 99.570312 C 38.019531 99.074219 39.582031 98.417969 41.097656 97.597656 C 43.238281 96.4375 44.226562 91.769531 44.777344 89.476562 C 45.042969 89.308594 45.160156 89.109375 45.132812 88.878906 C 45.113281 88.699219 45.078125 88.695312 45.027344 88.867188 C 44.953125 89.121094 44.839844 89.253906 44.691406 89.269531 Z M 44.691406 89.269531 "/>
<path style=" stroke:none;fill-rule:nonzero;fill:rgb(0.784314%,42.745098%,58.431373%);fill-opacity:1;" d="M 44.777344 89.476562 L 44.691406 89.269531 C 44.839844 89.253906 44.953125 89.121094 45.027344 88.867188 C 45.078125 88.695312 45.113281 88.699219 45.132812 88.878906 C 45.160156 89.109375 45.042969 89.308594 44.777344 89.476562 Z M 44.777344 89.476562 "/>
<path style=" stroke:none;fill-rule:nonzero;fill:rgb(99.215686%,77.254902%,1.176471%);fill-opacity:1;" d="M 38.25 90.4375 C 37.554688 90.90625 37.121094 91.515625 36.949219 92.269531 C 36.5625 93.96875 35.648438 96.792969 35.589844 99.023438 C 35.578125 99.582031 35.917969 99.710938 36.40625 99.570312 C 36.34375 99.960938 36.085938 100.132812 35.640625 100.085938 C 35.527344 100.074219 35.460938 100.011719 35.433594 99.902344 L 35.339844 99.488281 C 35.316406 99.386719 35.214844 99.324219 35.113281 99.34375 C 32.050781 100.011719 29.941406 101.335938 27.207031 103.328125 C 26.398438 103.917969 26.046875 104.542969 25.496094 105.367188 C 25.402344 105.5 25.363281 105.488281 25.375 105.324219 C 25.539062 102.097656 26.191406 99.160156 27.320312 96.515625 C 28.75 93.175781 33.140625 91.734375 36.324219 90.554688 C 37.058594 90.285156 37.699219 90.246094 38.25 90.4375 Z M 38.25 90.4375 "/>
<path style=" stroke:none;fill-rule:nonzero;fill:rgb(90.588235%,58.431373%,34.901961%);fill-opacity:1;" d="M 70.589844 103.167969 C 70.542969 103.136719 70.511719 103.082031 70.511719 103.023438 C 70.511719 102.96875 70.539062 102.914062 70.585938 102.878906 C 71.976562 101.945312 70.183594 100.085938 72.550781 99.785156 C 72.6875 99.761719 72.824219 99.851562 72.855469 99.988281 C 72.890625 100.125 72.8125 100.265625 72.679688 100.3125 C 71.699219 100.679688 71.183594 102.652344 72.730469 102.78125 C 72.835938 102.796875 72.914062 102.890625 72.910156 102.996094 C 72.90625 103.105469 72.824219 103.191406 72.71875 103.199219 C 71.363281 103.238281 71.878906 105.574219 71.808594 106.480469 C 71.796875 106.648438 71.746094 106.757812 71.652344 106.804688 C 71.578125 106.847656 71.484375 106.847656 71.410156 106.804688 C 71.332031 106.765625 71.28125 106.6875 71.269531 106.601562 C 71.160156 105.53125 71.539062 103.792969 70.589844 103.167969 Z M 70.589844 103.167969 "/>
<path style=" stroke:none;fill-rule:nonzero;fill:rgb(90.588235%,58.431373%,34.901961%);fill-opacity:1;" d="M 91.636719 103.535156 L 91.601562 106.71875 C 91.601562 106.753906 91.582031 106.789062 91.554688 106.8125 C 91.523438 106.835938 91.484375 106.847656 91.449219 106.839844 C 91.246094 106.792969 91.140625 106.671875 91.132812 106.464844 C 91.101562 105.683594 91.089844 104.902344 91.101562 104.113281 C 91.105469 103.554688 90.824219 103.242188 90.253906 103.179688 C 90.160156 103.164062 90.09375 103.085938 90.09375 102.992188 C 90.097656 102.898438 90.167969 102.820312 90.261719 102.808594 C 90.945312 102.757812 91.234375 102.371094 91.125 101.648438 C 91.113281 101.566406 91.117188 101.484375 91.136719 101.402344 C 91.183594 101.1875 91.273438 101.117188 91.40625 101.191406 C 91.492188 101.234375 91.539062 101.304688 91.554688 101.398438 L 91.714844 102.558594 C 91.726562 102.652344 91.796875 102.730469 91.890625 102.75 L 92.558594 102.902344 C 92.613281 102.910156 92.65625 102.960938 92.652344 103.019531 C 92.652344 103.074219 92.609375 103.121094 92.554688 103.128906 L 91.871094 103.253906 C 91.738281 103.277344 91.636719 103.394531 91.636719 103.535156 Z M 91.636719 103.535156 "/>
<path style=" stroke:none;fill-rule:nonzero;fill:rgb(90.588235%,58.431373%,34.901961%);fill-opacity:1;" d="M 112.402344 103.308594 C 112.289062 103.261719 112.207031 103.171875 112.1875 103.070312 C 112.164062 102.964844 113.109375 102.167969 113.152344 101.53125 C 113.164062 101.324219 113.332031 101.15625 113.539062 101.148438 C 113.652344 101.144531 113.734375 101.203125 113.792969 101.324219 C 113.824219 101.390625 113.828125 101.484375 113.808594 101.597656 C 113.6875 102.308594 113.992188 102.703125 114.730469 102.78125 C 114.816406 102.792969 114.882812 102.855469 114.898438 102.941406 C 114.910156 103.027344 114.867188 103.109375 114.789062 103.144531 L 113.957031 103.53125 C 113.867188 103.574219 113.8125 103.664062 113.8125 103.761719 L 113.808594 106.617188 C 113.804688 106.757812 113.699219 106.871094 113.558594 106.886719 C 113.417969 106.902344 113.289062 106.8125 113.253906 106.679688 C 113.042969 105.734375 113.027344 104.789062 113.210938 103.847656 C 113.234375 103.726562 113.191406 103.644531 113.078125 103.597656 Z M 112.402344 103.308594 "/>
<path style=" stroke:none;fill-rule:nonzero;fill:rgb(90.588235%,58.431373%,34.901961%);fill-opacity:1;" d="M 76.503906 101.445312 C 76.4375 101.292969 76.238281 101.234375 76.0625 101.3125 C 75.886719 101.390625 75.796875 101.578125 75.867188 101.730469 C 75.933594 101.878906 76.128906 101.9375 76.304688 101.859375 C 76.480469 101.78125 76.570312 101.597656 76.503906 101.445312 Z M 76.503906 101.445312 "/>
<path style=" stroke:none;fill-rule:nonzero;fill:rgb(90.588235%,58.431373%,34.901961%);fill-opacity:1;" d="M 87.316406 101.539062 C 87.292969 101.386719 87.082031 101.296875 86.851562 101.335938 C 86.617188 101.375 86.453125 101.527344 86.476562 101.679688 C 86.5 101.828125 86.710938 101.917969 86.941406 101.878906 C 87.175781 101.839844 87.34375 101.6875 87.316406 101.539062 Z M 87.316406 101.539062 "/>
<path style=" stroke:none;fill-rule:nonzero;fill:rgb(90.588235%,58.431373%,34.901961%);fill-opacity:1;" d="M 60.613281 101.59375 C 60.613281 101.460938 60.476562 101.355469 60.304688 101.355469 C 60.136719 101.355469 60 101.460938 60 101.59375 C 60 101.722656 60.136719 101.832031 60.308594 101.828125 C 60.476562 101.828125 60.613281 101.722656 60.613281 101.59375 Z M 60.613281 101.59375 "/>
<path style=" stroke:none;fill-rule:nonzero;fill:rgb(90.588235%,58.431373%,34.901961%);fill-opacity:1;" d="M 133.269531 105.527344 C 133.046875 106.550781 132.035156 107.199219 131.011719 106.972656 L 130.609375 106.882812 C 129.585938 106.660156 128.941406 105.648438 129.164062 104.625 L 129.3125 103.957031 C 129.535156 102.933594 130.546875 102.289062 131.570312 102.511719 L 131.972656 102.601562 C 132.996094 102.824219 133.640625 103.835938 133.417969 104.859375 Z M 130.59375 104.449219 L 131.9375 104.300781 C 132.042969 104.289062 132.113281 104.199219 132.105469 104.097656 L 132.097656 104.046875 C 132.058594 103.691406 131.667969 103.4375 131.21875 103.488281 L 131.117188 103.5 C 130.671875 103.546875 130.339844 103.875 130.378906 104.234375 L 130.386719 104.285156 C 130.390625 104.332031 130.414062 104.378906 130.453125 104.410156 C 130.492188 104.441406 130.542969 104.457031 130.59375 104.449219 Z M 130.507812 105.714844 C 131.230469 106.105469 131.8125 105.992188 132.261719 105.378906 C 132.289062 105.339844 132.289062 105.289062 132.261719 105.25 C 132.234375 105.210938 132.183594 105.195312 132.136719 105.210938 C 131.613281 105.386719 131.117188 105.332031 130.648438 105.046875 C 130.507812 104.960938 130.429688 105.003906 130.414062 105.164062 L 130.382812 105.472656 C 130.375 105.574219 130.421875 105.667969 130.507812 105.714844 Z M 130.507812 105.714844 "/>
<path style=" stroke:none;fill-rule:nonzero;fill:rgb(90.588235%,58.431373%,34.901961%);fill-opacity:1;" d="M 121.671875 104.75 C 121.671875 105.953125 120.699219 106.925781 119.496094 106.925781 C 118.292969 106.925781 117.316406 105.953125 117.316406 104.75 C 117.316406 103.546875 118.292969 102.570312 119.496094 102.570312 C 120.699219 102.570312 121.671875 103.546875 121.671875 104.75 Z M 120.914062 104.761719 C 120.914062 103.988281 120.289062 103.359375 119.511719 103.359375 C 118.738281 103.359375 118.109375 103.988281 118.109375 104.761719 C 118.109375 105.539062 118.738281 106.167969 119.511719 106.167969 C 120.289062 106.167969 120.914062 105.539062 120.914062 104.761719 Z M 120.914062 104.761719 "/>
<path style=" stroke:none;fill-rule:nonzero;fill:rgb(90.588235%,58.431373%,34.901961%);fill-opacity:1;" d="M 98.792969 106.410156 C 98.625 106.910156 98.082031 107.179688 97.582031 107.011719 L 96.699219 106.710938 C 95.605469 106.34375 95.019531 105.15625 95.390625 104.0625 L 95.390625 104.058594 C 95.761719 102.964844 96.945312 102.378906 98.039062 102.746094 L 98.921875 103.046875 C 99.164062 103.128906 99.363281 103.300781 99.476562 103.527344 C 99.589844 103.757812 99.605469 104.019531 99.523438 104.261719 Z M 98.464844 103.914062 C 98.460938 103.640625 98.234375 103.421875 97.960938 103.425781 L 96.914062 103.445312 C 96.636719 103.449219 96.417969 103.675781 96.425781 103.949219 L 96.425781 104.019531 C 96.429688 104.296875 96.65625 104.515625 96.929688 104.507812 L 97.980469 104.492188 C 98.253906 104.484375 98.472656 104.257812 98.46875 103.984375 Z M 98.550781 104.957031 L 96.445312 104.910156 C 96.378906 104.910156 96.320312 104.964844 96.320312 105.03125 L 96.320312 105.054688 C 96.304688 105.667969 96.800781 106.179688 97.429688 106.191406 L 97.515625 106.191406 C 98.140625 106.203125 98.660156 105.714844 98.671875 105.101562 L 98.671875 105.078125 C 98.671875 105.011719 98.617188 104.957031 98.550781 104.957031 Z M 98.550781 104.957031 "/>
<path style=" stroke:none;fill-rule:nonzero;fill:rgb(90.588235%,58.431373%,34.901961%);fill-opacity:1;" d="M 107.566406 103.765625 C 107.9375 104.25 108.441406 104.503906 109.074219 104.535156 C 109.15625 104.539062 109.230469 104.574219 109.289062 104.628906 C 110.945312 106.355469 108.367188 107.734375 106.886719 106.546875 C 106.816406 106.492188 106.757812 106.425781 106.714844 106.347656 C 106.5625 106.089844 106.589844 105.863281 106.792969 105.667969 C 106.863281 105.601562 106.976562 105.597656 107.050781 105.65625 L 107.902344 106.332031 C 108.054688 106.449219 108.25 106.484375 108.433594 106.421875 C 108.613281 106.359375 108.746094 106.207031 108.792969 106.019531 C 109.167969 104.4375 106.464844 105.71875 106.621094 103.457031 C 106.628906 103.351562 106.679688 103.25 106.761719 103.179688 C 107.460938 102.554688 108.261719 102.441406 109.164062 102.839844 C 109.382812 102.933594 109.519531 103.160156 109.5 103.398438 C 109.472656 103.730469 109.3125 103.871094 109.027344 103.820312 C 108.945312 103.804688 108.878906 103.765625 108.828125 103.699219 C 108.511719 103.304688 108.121094 103.210938 107.65625 103.410156 C 107.59375 103.441406 107.542969 103.496094 107.527344 103.566406 C 107.507812 103.636719 107.523438 103.707031 107.566406 103.765625 Z M 107.566406 103.765625 "/>
<path style=" stroke:none;fill-rule:nonzero;fill:rgb(90.588235%,58.431373%,34.901961%);fill-opacity:1;" d="M 124.785156 106.742188 C 124.707031 106.730469 124.648438 106.664062 124.648438 106.582031 L 124.707031 103.054688 C 124.710938 102.964844 124.753906 102.914062 124.84375 102.898438 L 126.515625 102.597656 C 126.664062 102.574219 126.75 102.632812 126.777344 102.78125 L 126.851562 103.1875 C 126.871094 103.304688 126.824219 103.382812 126.707031 103.417969 L 125.882812 103.652344 C 125.78125 103.683594 125.703125 103.761719 125.679688 103.863281 C 125.507812 104.554688 125.445312 105.253906 125.5 105.960938 C 125.535156 106.496094 125.363281 106.824219 124.785156 106.742188 Z M 124.785156 106.742188 "/>
<path style=" stroke:none;fill-rule:nonzero;fill:rgb(90.588235%,58.431373%,34.901961%);fill-opacity:1;" d="M 66.894531 106.042969 C 66.96875 105.214844 67.226562 102.539062 65.421875 103.414062 C 64.46875 103.875 64.789062 105.789062 64.640625 106.597656 C 64.613281 106.738281 64.480469 106.835938 64.339844 106.820312 C 64.199219 106.808594 64.085938 106.691406 64.085938 106.546875 L 64.085938 103.003906 C 64.085938 102.882812 64.140625 102.835938 64.257812 102.859375 C 65.539062 103.113281 67.1875 101.875 67.519531 104.078125 C 67.648438 104.964844 67.628906 105.847656 67.453125 106.726562 C 67.441406 106.785156 67.402344 106.832031 67.347656 106.855469 C 67.296875 106.878906 67.234375 106.878906 67.183594 106.847656 C 66.957031 106.714844 66.859375 106.445312 66.894531 106.042969 Z M 66.894531 106.042969 "/>
<path style=" stroke:none;fill-rule:nonzero;fill:rgb(90.588235%,58.431373%,34.901961%);fill-opacity:1;" d="M 76.175781 102.722656 L 76.1875 102.722656 C 76.324219 102.722656 76.4375 102.832031 76.4375 102.96875 L 76.4375 106.527344 C 76.4375 106.664062 76.324219 106.777344 76.1875 106.777344 L 76.175781 106.777344 C 76.039062 106.777344 75.925781 106.664062 75.925781 106.527344 L 75.925781 102.96875 C 75.925781 102.832031 76.039062 102.722656 76.175781 102.722656 Z M 76.175781 102.722656 "/>
<path style=" stroke:none;fill-rule:nonzero;fill:rgb(90.588235%,58.431373%,34.901961%);fill-opacity:1;" d="M 80.015625 106.730469 C 79.953125 106.65625 79.921875 106.574219 79.921875 106.480469 L 79.921875 103.078125 C 79.921875 102.96875 79.972656 102.917969 80.082031 102.917969 C 81.445312 102.941406 83.207031 102.015625 83.402344 104.199219 C 83.457031 104.796875 83.632812 106.292969 83.316406 106.761719 C 83.253906 106.855469 83.136719 106.902344 83.023438 106.871094 C 82.914062 106.84375 82.835938 106.746094 82.828125 106.632812 C 82.753906 105.800781 83.085938 103.082031 81.691406 103.308594 C 80.433594 103.511719 80.558594 105.25 80.507812 106.460938 C 80.503906 106.5625 80.46875 106.648438 80.410156 106.730469 C 80.28125 106.886719 80.152344 106.886719 80.015625 106.730469 Z M 80.015625 106.730469 "/>
<path style=" stroke:none;fill-rule:nonzero;fill:rgb(90.588235%,58.431373%,34.901961%);fill-opacity:1;" d="M 60.308594 102.804688 L 60.324219 102.804688 C 60.480469 102.804688 60.605469 102.929688 60.605469 103.085938 L 60.59375 106.496094 C 60.59375 106.652344 60.46875 106.777344 60.3125 106.777344 L 60.292969 106.777344 C 60.140625 106.777344 60.011719 106.648438 60.015625 106.492188 L 60.027344 103.082031 C 60.027344 102.929688 60.152344 102.804688 60.308594 102.804688 Z M 60.308594 102.804688 "/>
<path style=" stroke:none;fill-rule:nonzero;fill:rgb(90.588235%,58.431373%,34.901961%);fill-opacity:1;" d="M 86.839844 102.796875 L 86.957031 102.792969 C 87.109375 102.792969 87.234375 102.917969 87.238281 103.070312 L 87.253906 106.488281 C 87.253906 106.640625 87.132812 106.765625 86.976562 106.765625 L 86.859375 106.765625 C 86.707031 106.769531 86.582031 106.644531 86.578125 106.492188 L 86.5625 103.074219 C 86.5625 102.921875 86.683594 102.796875 86.839844 102.796875 Z M 86.839844 102.796875 "/>
</g>
</svg>
